<svg width="703" height="615" viewBox="0 0 703 615" fill="none" xmlns="http://www.w3.org/2000/svg">
<path d="M565.245 337.624C553.14 316.629 522.878 316.629 510.773 337.624L378.084 567.761C365.979 588.756 381.11 615 405.32 615H670.698C694.908 615 710.039 588.756 697.934 567.761L565.245 337.624Z" fill="#C4FF61"/>
<path d="M191.422 337.624C179.317 316.629 149.054 316.629 136.949 337.624L4.26044 567.761C-7.84452 588.756 7.28664 615 31.4966 615H296.874C321.084 615 336.216 588.756 324.111 567.761L191.422 337.624Z" fill="#C4FF61"/>
<path d="M378.257 15.7463C366.186 -5.24871 336.009 -5.24878 323.938 15.7462L191.624 245.883C179.553 266.878 194.642 293.122 218.783 293.122H483.411C507.553 293.122 522.641 266.878 510.571 245.883L378.257 15.7463Z" fill="#C4FF61"/>
</svg>
